{
    "asset" : {
        "generator" : "Khronos glTF Blender I/O v1.3.48",
        "version" : "2.0"
    },
    "scene" : 0,
    "scenes" : [
        {
            "name" : "Scene",
            "nodes" : [
                1,
                2
            ]
        }
    ],
    "nodes" : [
        {
            "mesh" : 0,
            "name" : "Cube.002_Nabb_0",
            "scale" : [
                1,
                0.699999988079071,
                1
            ]
        },
        {
            "children" : [
                0
            ],
            "name" : "Cube.002",
            "rotation" : [
                -0.6259523630142212,
                0,
                0,
                0.7798612713813782
            ],
            "translation" : [
                0,
                0.008526045829057693,
                -0.0052947998046875
            ]
        },
        {
            "name" : "Cube.003",
            "rotation" : [
                -0.657705545425415,
                0,
                0,
                0.7532751560211182
            ]
        }
    ],
    "materials" : [
        {
            "doubleSided" : true,
            "emissiveFactor" : [
                0,
                0,
                0
            ],
            "name" : "Nabb",
            "normalTexture" : {
                "index" : 0,
                "texCoord" : 0
            },
            "pbrMetallicRoughness" : {
                "baseColorTexture" : {
                    "index" : 1,
                    "texCoord" : 0
                },
                "metallicRoughnessTexture" : {
                    "index" : 2,
                    "texCoord" : 0
                }
            }
        }
    ],
    "meshes" : [
        {
            "name" : "Cube.002_Nabb_0",
            "primitives" : [
                {
                    "attributes" : {
                        "POSITION" : 0,
                        "NORMAL" : 1,
                        "TEXCOORD_0" : 2,
                        "TEXCOORD_1" : 3,
                        "TEXCOORD_2" : 4
                    },
                    "indices" : 5,
                    "material" : 0
                }
            ]
        }
    ],
    "textures" : [
        {
            "source" : 0
        },
        {
            "source" : 1
        },
        {
            "source" : 2
        }
    ],
    "images" : [
        {
            "bufferView" : 6,
            "mimeType" : "image/png",
            "name" : "Image_5"
        },
        {
            "bufferView" : 7,
            "mimeType" : "image/png",
            "name" : "Image_3"
        },
        {
            "bufferView" : 8,
            "mimeType" : "image/png",
            "name" : "Image_4"
        }
    ],
    "accessors" : [
        {
            "bufferView" : 0,
            "componentType" : 5126,
            "count" : 1822,
            "max" : [
                0.6595262289047241,
                0.2765558660030365,
                0.6528831124305725
            ],
            "min" : [
                -0.6560831665992737,
                -2.522902727127075,
                -0.8420777320861816
            ],
            "type" : "VEC3"
        },
        {
            "bufferView" : 1,
            "componentType" : 5126,
            "count" : 1822,
            "type" : "VEC3"
        },
        {
            "bufferView" : 2,
            "componentType" : 5126,
            "count" : 1822,
            "type" : "VEC2"
        },
        {
            "bufferView" : 3,
            "componentType" : 5126,
            "count" : 1822,
            "type" : "VEC2"
        },
        {
            "bufferView" : 4,
            "componentType" : 5126,
            "count" : 1822,
            "type" : "VEC2"
        },
        {
            "bufferView" : 5,
            "componentType" : 5123,
            "count" : 5172,
            "type" : "SCALAR"
        }
    ],
    "bufferViews" : [
        {
            "buffer" : 0,
            "byteLength" : 21864,
            "byteOffset" : 0
        },
        {
            "buffer" : 0,
            "byteLength" : 21864,
            "byteOffset" : 21864
        },
        {
            "buffer" : 0,
            "byteLength" : 14576,
            "byteOffset" : 43728
        },
        {
            "buffer" : 0,
            "byteLength" : 14576,
            "byteOffset" : 58304
        },
        {
            "buffer" : 0,
            "byteLength" : 14576,
            "byteOffset" : 72880
        },
        {
            "buffer" : 0,
            "byteLength" : 10344,
            "byteOffset" : 87456
        },
        {
            "buffer" : 0,
            "byteLength" : 222,
            "byteOffset" : 97800
        },
        {
            "buffer" : 0,
            "byteLength" : 498115,
            "byteOffset" : 98024
        },
        {
            "buffer" : 0,
            "byteLength" : 176395,
            "byteOffset" : 596140
        }
    ],
    "buffers" : [
        {
            "byteLength" : 772536,
            "uri" : "data:application/octet-stream;base64,"
        }
    ]
}
