{
    "asset" : {
        "generator" : "Khronos glTF Blender I/O v1.3.48",
        "version" : "2.0"
    },
    "scene" : 0,
    "scenes" : [
        {
            "name" : "Scene",
            "nodes" : [
                0,
                2
            ]
        }
    ],
    "nodes" : [
        {
            "name" : "Cube.002",
            "rotation" : [
                -0.6259523630142212,
                0,
                0,
                0.7798612713813782
            ],
            "translation" : [
                0,
                0.008526045829057693,
                -0.0052947998046875
            ]
        },
        {
            "mesh" : 0,
            "name" : "Cube.003_Nabb2_0",
            "scale" : [
                1,
                0.699999988079071,
                1
            ]
        },
        {
            "children" : [
                1
            ],
            "name" : "Cube.003",
            "rotation" : [
                -0.657705545425415,
                0,
                0,
                0.7532751560211182
            ]
        }
    ],
    "materials" : [
        {
            "doubleSided" : true,
            "emissiveFactor" : [
                0,
                0,
                0
            ],
            "name" : "Nabb2",
            "normalTexture" : {
                "index" : 0,
                "texCoord" : 0
            },
            "pbrMetallicRoughness" : {
                "baseColorTexture" : {
                    "index" : 1,
                    "texCoord" : 0
                },
                "metallicRoughnessTexture" : {
                    "index" : 2,
                    "texCoord" : 0
                }
            }
        }
    ],
    "meshes" : [
        {
            "name" : "Cube.003_Nabb2_0",
            "primitives" : [
                {
                    "attributes" : {
                        "POSITION" : 0,
                        "NORMAL" : 1,
                        "TEXCOORD_0" : 2,
                        "TEXCOORD_1" : 3,
                        "TEXCOORD_2" : 4
                    },
                    "indices" : 5,
                    "material" : 0
                }
            ]
        }
    ],
    "textures" : [
        {
            "source" : 0
        },
        {
            "source" : 1
        },
        {
            "source" : 2
        }
    ],
    "images" : [
        {
            "bufferView" : 6,
            "mimeType" : "image/png",
            "name" : "Image_8"
        },
        {
            "bufferView" : 7,
            "mimeType" : "image/png",
            "name" : "Image_6"
        },
        {
            "bufferView" : 8,
            "mimeType" : "image/png",
            "name" : "Image_7"
        }
    ],
    "accessors" : [
        {
            "bufferView" : 0,
            "componentType" : 5126,
            "count" : 980,
            "max" : [
                0.5170471668243408,
                0.5344587564468384,
                -0.0089023532345891
            ],
            "min" : [
                -0.5168677568435669,
                -2.035886526107788,
                -0.5042744874954224
            ],
            "type" : "VEC3"
        },
        {
            "bufferView" : 1,
            "componentType" : 5126,
            "count" : 980,
            "type" : "VEC3"
        },
        {
            "bufferView" : 2,
            "componentType" : 5126,
            "count" : 980,
            "type" : "VEC2"
        },
        {
            "bufferView" : 3,
            "componentType" : 5126,
            "count" : 980,
            "type" : "VEC2"
        },
        {
            "bufferView" : 4,
            "componentType" : 5126,
            "count" : 980,
            "type" : "VEC2"
        },
        {
            "bufferView" : 5,
            "componentType" : 5123,
            "count" : 3462,
            "type" : "SCALAR"
        }
    ],
    "bufferViews" : [
        {
            "buffer" : 0,
            "byteLength" : 11760,
            "byteOffset" : 0
        },
        {
            "buffer" : 0,
            "byteLength" : 11760,
            "byteOffset" : 11760
        },
        {
            "buffer" : 0,
            "byteLength" : 7840,
            "byteOffset" : 23520
        },
        {
            "buffer" : 0,
            "byteLength" : 7840,
            "byteOffset" : 31360
        },
        {
            "buffer" : 0,
            "byteLength" : 7840,
            "byteOffset" : 39200
        },
        {
            "buffer" : 0,
            "byteLength" : 6924,
            "byteOffset" : 47040
        },
        {
            "buffer" : 0,
            "byteLength" : 222,
            "byteOffset" : 53964
        },
        {
            "buffer" : 0,
            "byteLength" : 325925,
            "byteOffset" : 54188
        },
        {
            "buffer" : 0,
            "byteLength" : 176395,
            "byteOffset" : 380116
        }
    ],
    "buffers" : [
        {
            "byteLength" : 556512,
            "uri" : "data:application/octet-stream;base64,"
        }
    ]
}
