{
    "asset" : {
        "generator" : "Khronos glTF Blender I/O v1.3.48",
        "version" : "2.0"
    },
    "scene" : 0,
    "scenes" : [
        {
            "name" : "Scene",
            "nodes" : [
                4
            ]
        }
    ],
    "nodes" : [
        {
            "mesh" : 0,
            "name" : "Horn_Horn_0",
            "rotation" : [
                0.36493831872940063,
                0,
                0,
                0.9310317635536194
            ],
            "scale" : [
                0.10000000149011612,
                0.10000000149011612,
                0.10000000149011612
            ]
        },
        {
            "children" : [
                0
            ],
            "name" : "Horn",
            "rotation" : [
                -0.7071068286895752,
                0,
                0,
                0.7071067094802856
            ],
            "scale" : [
                100,
                100,
                100
            ]
        },
        {
            "children" : [
                1
            ],
            "name" : "RootNode"
        },
        {
            "children" : [
                2
            ],
            "name" : "e2d65efa82214504b0c1f033b09a5049.fbx",
            "rotation" : [
                0.7071068286895752,
                0,
                0,
                0.7071068286895752
            ]
        },
        {
            "children" : [
                3
            ],
            "name" : "Sketchfab_model",
            "rotation" : [
                -0.7071068286895752,
                0,
                0,
                0.7071068286895752
            ]
        }
    ],
    "materials" : [
        {
            "doubleSided" : true,
            "emissiveFactor" : [
                0.07999999821186066,
                0.0009179150220006704,
                0.002010989934206009
            ],
            "name" : "Horn",
            "pbrMetallicRoughness" : {
                "baseColorFactor" : [
                    0.800000011920929,
                    0.009179149754345417,
                    0.02010989934206009,
                    1
                ],
                "metallicFactor" : 0,
                "roughnessFactor" : 0.823941707611084
            }
        }
    ],
    "meshes" : [
        {
            "name" : "Horn_Horn_0",
            "primitives" : [
                {
                    "attributes" : {
                        "POSITION" : 0,
                        "NORMAL" : 1
                    },
                    "indices" : 2,
                    "material" : 0
                }
            ]
        }
    ],
    "accessors" : [
        {
            "bufferView" : 0,
            "componentType" : 5126,
            "count" : 2006,
            "max" : [
                1.494289517402649,
                0.6123092174530029,
                1.199540615081787
            ],
            "min" : [
                -1.494289755821228,
                -0.4278944730758667,
                -0.8423864841461182
            ],
            "type" : "VEC3"
        },
        {
            "bufferView" : 1,
            "componentType" : 5126,
            "count" : 2006,
            "type" : "VEC3"
        },
        {
            "bufferView" : 2,
            "componentType" : 5123,
            "count" : 2868,
            "type" : "SCALAR"
        }
    ],
    "bufferViews" : [
        {
            "buffer" : 0,
            "byteLength" : 24072,
            "byteOffset" : 0
        },
        {
            "buffer" : 0,
            "byteLength" : 24072,
            "byteOffset" : 24072
        },
        {
            "buffer" : 0,
            "byteLength" : 5736,
            "byteOffset" : 48144
        }
    ],
    "buffers" : [
        {
            "byteLength" : 53880,
            "uri" : "data:application/octet-stream;base64,"
        }
    ]
}
