{
    "asset" : {
        "generator" : "Khronos glTF Blender I/O v1.3.48",
        "version" : "2.0"
    },
    "scene" : 0,
    "scenes" : [
        {
            "name" : "Scene",
            "nodes" : [
                0
            ]
        }
    ],
    "nodes" : [
        {
            "mesh" : 0,
            "name" : "model.001",
            "rotation" : [
                0.0009889559587463737,
                0.5944821834564209,
                -0.8039218783378601,
                0.017313184216618538
            ],
            "scale" : [
                -0.07662244886159897,
                -0.055544108152389526,
                -0.09656944125890732
            ]
        }
    ],
    "materials" : [
        {
            "doubleSided" : true,
            "emissiveFactor" : [
                0.08021986484527588,
                0.00091056979727,
                0.0021246904507279396
            ],
            "name" : "Material.002",
            "pbrMetallicRoughness" : {
                "baseColorFactor" : [
                    0.799103319644928,
                    0.009133887477219105,
                    0.020288575440645218,
                    1
                ],
                "metallicFactor" : 0,
                "roughnessFactor" : 0.8240000009536743
            }
        }
    ],
    "meshes" : [
        {
            "name" : "Plane.001",
            "primitives" : [
                {
                    "attributes" : {
                        "POSITION" : 0,
                        "NORMAL" : 1,
                        "TEXCOORD_0" : 2
                    },
                    "indices" : 3,
                    "material" : 0
                }
            ]
        }
    ],
    "accessors" : [
        {
            "bufferView" : 0,
            "componentType" : 5126,
            "count" : 7040,
            "max" : [
                5.7620768547058105,
                4.172854423522949,
                6.87759256362915
            ],
            "min" : [
                -0.3094612956047058,
                -2.139915704727173,
                -0.15147551894187927
            ],
            "type" : "VEC3"
        },
        {
            "bufferView" : 1,
            "componentType" : 5126,
            "count" : 7040,
            "type" : "VEC3"
        },
        {
            "bufferView" : 2,
            "componentType" : 5126,
            "count" : 7040,
            "type" : "VEC2"
        },
        {
            "bufferView" : 3,
            "componentType" : 5123,
            "count" : 10560,
            "type" : "SCALAR"
        }
    ],
    "bufferViews" : [
        {
            "buffer" : 0,
            "byteLength" : 84480,
            "byteOffset" : 0
        },
        {
            "buffer" : 0,
            "byteLength" : 84480,
            "byteOffset" : 84480
        },
        {
            "buffer" : 0,
            "byteLength" : 56320,
            "byteOffset" : 168960
        },
        {
            "buffer" : 0,
            "byteLength" : 21120,
            "byteOffset" : 225280
        }
    ],
    "buffers" : [
        {
            "byteLength" : 246400,
            "uri" : "data:application/octet-stream;base64,"
        }
    ]
}
